<svg width="30" height="30" viewBox="0 0 30 30" fill="none" xmlns="http://www.w3.org/2000/svg">
<g filter="url(#filter0_d_5_250)">
<path d="M13.6324 17.9926H15.4847V16.6695C16.3668 16.5107 17.1254 16.1667 17.7605 15.6374C18.3956 15.1082 18.7132 14.3231 18.7132 13.2823C18.7132 12.5413 18.5015 11.8621 18.0781 11.2447C17.6547 10.6272 16.8079 10.0891 15.5377 9.63046C14.4792 9.27763 13.747 8.9689 13.3413 8.70427C12.9355 8.43965 12.7326 8.07799 12.7326 7.61931C12.7326 7.16062 12.8958 6.79897 13.2222 6.53435C13.5486 6.26972 14.0205 6.13741 14.6379 6.13741C15.2025 6.13741 15.6435 6.27413 15.9611 6.54758C16.2786 6.82102 16.5079 7.16062 16.6491 7.56638L18.3427 6.87836C18.1486 6.2609 17.7914 5.72283 17.2709 5.26415C16.7505 4.80546 16.1728 4.54966 15.5377 4.49673V3.17361H13.6853V4.49673C12.8032 4.69079 12.1152 5.07891 11.6212 5.66108C11.1272 6.24326 10.8803 6.896 10.8803 7.61931C10.8803 8.44847 11.1228 9.11885 11.608 9.63046C12.0931 10.1421 12.8561 10.5831 13.897 10.9536C15.0084 11.3593 15.7802 11.721 16.2124 12.0385C16.6447 12.3561 16.8608 12.7707 16.8608 13.2823C16.8608 13.8645 16.6535 14.2923 16.2389 14.5657C15.8243 14.8392 15.326 14.9759 14.7438 14.9759C14.1616 14.9759 13.6456 14.7951 13.1957 14.4334C12.7459 14.0717 12.4151 13.5293 12.2034 12.806L10.4569 13.494C10.7038 14.3408 11.0875 15.0244 11.608 15.5448C12.1284 16.0653 12.8032 16.4225 13.6324 16.6166V17.9926ZM14.585 21.1681C13.1207 21.1681 11.7447 20.8903 10.4569 20.3345C9.16901 19.7788 8.04876 19.0246 7.09611 18.072C6.14346 17.1193 5.38928 15.9991 4.83357 14.7113C4.27786 13.4234 4 12.0474 4 10.5831C4 9.11885 4.27786 7.7428 4.83357 6.45496C5.38928 5.16712 6.14346 4.04687 7.09611 3.09422C8.04876 2.14157 9.16901 1.38739 10.4569 0.831677C11.7447 0.275964 13.1207 -0.00189209 14.585 -0.00189209C16.0493 -0.00189209 17.4253 0.275964 18.7132 0.831677C20.001 1.38739 21.1212 2.14157 22.0739 3.09422C23.0265 4.04687 23.7807 5.16712 24.3364 6.45496C24.8921 7.7428 25.17 9.11885 25.17 10.5831C25.17 12.0474 24.8921 13.4234 24.3364 14.7113C23.7807 15.9991 23.0265 17.1193 22.0739 18.072C21.1212 19.0246 20.001 19.7788 18.7132 20.3345C17.4253 20.8903 16.0493 21.1681 14.585 21.1681Z" fill="white"/>
</g>
<defs>
<filter id="filter0_d_5_250" x="0" y="-0.00189209" width="29.1699" height="29.17" filterUnits="userSpaceOnUse" color-interpolation-filters="sRGB">
<feFlood flood-opacity="0" result="BackgroundImageFix"/>
<feColorMatrix in="SourceAlpha" type="matrix" values="0 0 0 0 0 0 0 0 0 0 0 0 0 0 0 0 0 0 127 0" result="hardAlpha"/>
<feOffset dy="4"/>
<feGaussianBlur stdDeviation="2"/>
<feComposite in2="hardAlpha" operator="out"/>
<feColorMatrix type="matrix" values="0 0 0 0 0 0 0 0 0 0 0 0 0 0 0 0 0 0 0.25 0"/>
<feBlend mode="normal" in2="BackgroundImageFix" result="effect1_dropShadow_5_250"/>
<feBlend mode="normal" in="SourceGraphic" in2="effect1_dropShadow_5_250" result="shape"/>
</filter>
</defs>
</svg>
